<svg width="21" height="19" viewBox="0 0 21 19" fill="none" xmlns="http://www.w3.org/2000/svg">
<path d="M11.4567 0.908202L20.8024 0.908203L20.8024 8.10547C20.8024 10.7552 20.2509 12.8464 19.1481 14.3789C18.0452 15.9115 16.1546 17.265 13.4762 18.4395L11.4567 14.6152C13.1038 13.8418 14.2425 13.0684 14.8727 12.2949C15.5029 11.5358 15.8538 10.6335 15.9254 9.58789L11.4567 9.58789L11.4567 0.908202ZM0.564089 0.908201L9.90979 0.908202L9.90979 8.10547C9.90979 10.7552 9.35836 12.8464 8.25549 14.3789C7.15263 15.9115 5.262 17.265 2.58362 18.4395L0.564088 14.6152C2.21122 13.8418 3.3499 13.0684 3.9801 12.2949C4.61031 11.5358 4.96122 10.6335 5.03284 9.58789L0.564089 9.58789L0.564089 0.908201Z" fill="#6C0287"/>
</svg>
