<?xml version="1.0" standalone="no"?>
<!DOCTYPE svg PUBLIC "-//W3C//DTD SVG 20010904//EN"
 "http://www.w3.org/TR/2001/REC-SVG-20010904/DTD/svg10.dtd">
<svg version="1.0" xmlns="http://www.w3.org/2000/svg"
 width="960.000000pt" height="960.000000pt" viewBox="0 0 960.000000 960.000000"
 preserveAspectRatio="xMidYMid meet">
<metadata>
Created by potrace 1.14, written by Peter Selinger 2001-2017
</metadata>
<g transform="translate(0.000000,960.000000) scale(0.100000,-0.100000)"
fill="#000000" stroke="none">
<path d="M0 4800 l0 -2640 4800 0 4800 0 0 2640 0 2640 -4800 0 -4800 0 0
-2640z m3640 1286 c144 -25 236 -53 335 -101 217 -107 379 -290 478 -540 52
-131 54 -143 25 -150 -44 -10 -812 -145 -823 -144 -5 0 -25 32 -44 72 -80 167
-242 256 -464 257 -171 0 -310 -54 -424 -166 -123 -121 -183 -276 -204 -535
-23 -266 17 -536 101 -699 116 -221 370 -331 673 -291 122 16 203 43 345 113
l122 61 0 133 0 134 -292 2 -293 3 0 300 0 300 680 0 680 0 0 -615 0 -615
-129 -82 c-71 -45 -186 -111 -255 -146 -309 -158 -535 -213 -931 -224 -543
-15 -896 91 -1169 352 -112 106 -190 215 -261 360 -93 190 -137 349 -160 574
-54 543 114 1042 452 1339 183 159 391 256 651 302 161 28 162 28 502 25 232
-2 334 -7 405 -19z m3158 1 c433 -83 723 -270 918 -592 133 -218 192 -445 201
-776 15 -538 -103 -905 -382 -1184 -278 -279 -639 -398 -1155 -382 -470 14
-788 132 -1037 386 -297 301 -434 767 -382 1297 27 284 101 506 234 704 205
307 540 502 965 560 105 14 541 5 638 -13z"/>
<path d="M6295 5426 c-216 -51 -354 -195 -414 -431 -48 -190 -53 -481 -11
-685 52 -258 189 -418 406 -475 76 -20 252 -20 329 0 198 51 328 188 384 406
49 191 55 566 11 739 -55 220 -175 362 -359 426 -92 32 -254 41 -346 20z"/>
</g>
</svg>
